:SAMPLES-PER-SECOND 30
:FULLY-SPECIFIED
:DEGREES
122
root  60.1574 37.8718 4.95802 -94.609 -84.8384 89.5694
RightUpLeg  -19.243 -4.93065 -2.88059
RightLeg  1.8856 2.23997 0.326785
RightFoot  -2.14884 -0.636894 7.63357
RightToes  -6.40286e-010 0 -3.6325e-017
Spine  5.3912 -0.51703 -4.18755
Spine1  8.09216 -0.311286 -1.83284
HEad  -15.0383 -4.76187 -1.50377
LeftShoulder1  -0.450031 4.67833 -32.1055
LeftArm  8.52282 -6.35087 -45.1303
LeftForeArm  21.6568 -17.5994 -6.2772
LeftHand  0.00625372 6.41121 3.93124
RightShoulder  -0.768191 -5.68435 28.5326
RightArm  13.0663 -9.05201 46.124
RightForeArm  21.939 5.24294 6.88856
RightHand  -0.153881 4.49473 -2.08674
LeftUpLeg  12.2142 6.75436 -7.35313
LeftLeg  12.287 6.64374 -0.235462
LeftFoot  -19.7884 0.423783 4.12547
LeftToes  1.32783e-010 1.73515e-011 1.59258e-011
123
root  58.8997 37.6407 5.03911 -83.5272 -85.4299 78.3703
RightUpLeg  -19.6351 -5.27621 -2.04246
RightLeg  6.57099 -1.25027 0.39429
RightFoot  -1.92623 -0.481719 5.92242
RightToes  -6.40286e-010 0 -3.6325e-017
Spine  5.71622 -0.573617 -2.69072
Spine1  7.37056 -0.343411 -1.89682
HEad  -14.8437 -5.44915 -1.78938
LeftShoulder1  -0.285656 4.25471 -31.7567
LeftArm  9.40375 -4.23459 -46.0243
LeftForeArm  20.6102 -18.2184 -5.98709
LeftHand  0.042491 7.48755 4.33601
RightShoulder  -0.943094 -6.12348 29.4387
RightArm  13.904 -8.35766 44.5077
RightForeArm  21.1684 5.63313 7.12041
RightHand  -0.226198 5.49852 -2.73813
LeftUpLeg  14.204 7.0793 -6.52304
LeftLeg  12.9854 5.56409 0.303089
LeftFoot  -21.507 0.474967 3.87894
LeftToes  1.32783e-010 1.73515e-011 1.59258e-011
124
root  57.6182 37.6272 5.11847 -60.8747 -86.2374 56.3035
RightUpLeg  -20.6071 -6.10109 -0.491624
RightLeg  10.2568 -1.40442 0.468508
RightFoot  2.48453 0.0326591 -0.101824
RightToes  -6.40286e-010 0 -3.6325e-017
Spine  4.40957 -1.06154 -0.629755
Spine1  8.23051 -1.07522 -0.669064
HEad  -14.8392 -5.68173 -2.37827
LeftShoulder1  -0.542408 4.90356 -32.6333
LeftArm  10.7043 -2.45302 -45.9561
LeftForeArm  20.172 -18.6877 -5.80351
LeftHand  0.0132731 7.23713 3.03245
RightShoulder  -0.884944 -6.01759 28.6169
RightArm  13.8275 -7.56009 44.8162
RightForeArm  20.959 5.47616 7.11761
RightHand  -0.21483 5.87522 -2.49514
LeftUpLeg  16.0187 6.95229 -4.91965
LeftLeg  12.2487 4.05674 0.654688
LeftFoot  -21.6702 0.384958 2.83505
LeftToes  1.32783e-010 1.73515e-011 1.59258e-011
125
root  56.2288 37.563 5.15755 -26.5487 -86.8158 21.9383
RightUpLeg  -20.5747 -6.31804 1.32542
RightLeg  13.5198 -1.41324 0.106848
RightFoot  7.08116 0.407136 -2.29507
RightToes  -6.40286e-010 0 -3.6325e-017
Spine  3.9785 -0.986117 2.76236
Spine1  8.04309 -0.861982 -1.04317
HEad  -14.5231 -7.04117 -2.16293
LeftShoulder1  -0.41132 4.56936 -32.4746
LeftArm  10.6238 0.00812573 -46.4133
LeftForeArm  21.3957 -18.3049 -6.01286
LeftHand  0.00259876 6.81866 2.93354
RightShoulder  -0.978573 -6.20819 29.6178
RightArm  13.5267 -7.19951 43.3885
RightForeArm  21.1202 6.12062 6.85458
RightHand  -0.0865591 2.54346 -1.48559
LeftUpLeg  17.475 7.11278 -2.18439
LeftLeg  14.0829 1.84541 0.761201
LeftFoot  -22.1676 0.171058 0.408648
LeftToes  1.32783e-010 1.73515e-011 1.59258e-011
126
root  54.8464 37.5098 5.18314 5.48172 -87.6353 -10.136
RightUpLeg  -20.9135 -6.53832 3.3907
RightLeg  18.4212 -0.102385 -0.232566
RightFoot  4.38937 0.510809 -3.47769
RightToes  -6.40286e-010 0 -3.6325e-017
Spine  3.14539 -0.473424 6.14708
Spine1  8.61917 0.00755365 -1.90761
HEad  -15.4336 -9.0897 -1.71942
LeftShoulder1  -0.457478 4.67654 -32.837
LeftArm  10.1957 2.57453 -46.4722
LeftForeArm  22.601 -18.3197 -5.94347
LeftHand  0.00413957 6.93777 2.85872
RightShoulder  -1.07177 -6.41602 30.2692
RightArm  13.5194 -4.93876 43.1269
RightForeArm  19.8993 5.10575 6.9593
RightHand  -0.142081 3.04814 -2.18556
LeftUpLeg  17.9306 6.67983 -0.321344
LeftLeg  17.8175 1.36057 0.861721
LeftFoot  -21.6484 -0.170833 -3.33899
LeftToes  1.32783e-010 1.73515e-011 1.59258e-011
127
root  53.5659 37.4903 5.16546 43.0143 -87.9671 -47.7952
RightUpLeg  -20.2783 -5.85678 4.82258
RightLeg  21.526 -0.0949964 -0.272656
RightFoot  1.77643 0.516442 -4.38077
RightToes  -6.40286e-010 0 -3.6325e-017
Spine  3.39855 -0.00816378 8.97956
Spine1  8.41626 0.896153 -2.17073
HEad  -15.8839 -9.69645 -0.880705
LeftShoulder1  -0.608065 5.05027 -33.1744
LeftArm  10.1155 5.7326 -45.8751
LeftForeArm  22.3825 -18.4662 -5.84834
LeftHand  -0.0112017 6.25061 2.63817
RightShoulder  -1.03567 -6.31946 30.2292
RightArm  12.9668 -3.33823 43.7338
RightForeArm  20.6502 4.82912 6.82252
RightHand  -0.137809 3.27145 -2.09454
LeftUpLeg  16.5998 6.87265 1.81198
LeftLeg  24.5921 -0.287863 0.160421
LeftFoot  -19.3118 -0.454667 -8.39954
LeftToes  1.32783e-010 1.73515e-011 1.59258e-011
128
root  52.4401 37.503 5.11252 40.836 -86.4059 -45.3525
RightUpLeg  -19.6615 -6.71939 5.696
RightLeg  23.6057 -0.485608 -0.454512
RightFoot  -0.69404 0.457398 -4.94464
RightToes  -6.40286e-010 0 -3.6325e-017
Spine  3.17549 -0.305009 10.7607
Spine1  8.30238 0.877918 -1.73835
HEad  -13.9482 -9.37459 -1.02713
LeftShoulder1  -0.519992 4.82805 -33.1197
LeftArm  9.2862 8.63375 -45.2099
LeftForeArm  23.169 -17.908 -6.12401
LeftHand  -0.0144721 6.17681 2.29367
RightShoulder  -0.992783 -6.21777 30.0183
RightArm  11.8799 -1.04033 45.327
RightForeArm  20.5691 3.44812 6.56381
RightHand  -0.149063 3.94545 -2.13746
LeftUpLeg  12.0853 5.34746 3.46612
LeftLeg  34.6053 -1.65645 -0.854794
LeftFoot  -13.1523 -0.124028 -12.4363
LeftToes  1.32783e-010 1.73515e-011 1.59258e-011
129
root  51.3644 37.5574 5.05677 39.2372 -84.7533 -43.3432
RightUpLeg  -18.7279 -7.703 6.64815
RightLeg  24.6201 -0.866613 -0.607447
RightFoot  -2.89468 0.346469 -4.9367
RightToes  -6.40286e-010 0 -3.6325e-017
Spine  3.77312 -0.472223 13.274
Spine1  6.95763 1.21513 -2.46343
HEad  -13.4617 -11.2756 -0.254728
LeftShoulder1  -0.54206 4.88673 -33.0496
LeftArm  9.14696 10.5107 -44.3898
LeftForeArm  25.1307 -17.0007 -6.68091
LeftHand  0.000212908 7.06369 2.45703
RightShoulder  -1.06921 -6.42654 30.0326
RightArm  11.6751 0.550351 46.3538
RightForeArm  18.9507 4.43205 6.52656
RightHand  -0.194149 3.03097 -2.90032
LeftUpLeg  5.55397 3.70302 4.98767
LeftLeg  45.7689 -1.38962 -1.08314
LeftFoot  -1.97911 0.932144 -11.7471
LeftToes  1.32783e-010 1.73515e-011 1.59258e-011
130
root  50.3613 37.5779 4.99261 38.9908 -83.6808 -43.3208
RightUpLeg  -17.2126 -7.98815 7.18725
RightLeg  25.6382 -1.40895 -0.762196
RightFoot  -5.10797 0.214265 -4.56733
RightToes  -6.40286e-010 0 -3.6325e-017
Spine  3.15505 -0.180309 14.6161
Spine1  8.57536 1.74049 -2.03564
HEad  -13.6545 -13.7015 0.595676
LeftShoulder1  -0.515691 4.81427 -33.2074
LeftArm  8.31104 10.6177 -43.8922
LeftForeArm  27.3333 -15.8627 -7.31814
LeftHand  -0.0144557 6.81794 1.667
RightShoulder  -0.951448 -6.14822 29.4203
RightArm  11.0683 2.86588 47.7236
RightForeArm  17.5335 6.34649 6.31705
RightHand  -0.179189 3.60308 -2.56045
LeftUpLeg  -0.312053 2.29124 5.96224
LeftLeg  55.0989 -0.826403 -0.826042
LeftFoot  6.76647 1.3923 -8.82622
LeftToes  1.32783e-010 1.73515e-011 1.59258e-011
131
root  49.3183 37.7712 4.94086 34.3481 -83.4543 -39.325
RightUpLeg  -14.3618 -8.28499 6.65079
RightLeg  25.1989 -1.65579 -0.558844
RightFoot  -6.69444 0.13316 -4.40303
RightToes  -6.40286e-010 0 -3.6325e-017
Spine  4.75227 -0.0702207 15.2617
Spine1  7.2182 2.36025 -2.85413
HEad  -12.0436 -14.7201 1.58103
LeftShoulder1  -0.534602 4.87338 -32.8658
LeftArm  6.5302 12.0856 -43.3766
LeftForeArm  28.7028 -15.3603 -7.39244
LeftHand  -0.00934502 7.29371 1.72513
RightShoulder  -0.947279 -6.11243 29.743
RightArm  12.5257 4.95541 47.9083
RightForeArm  15.4339 8.84318 6.72202
RightHand  -0.230266 4.64694 -2.95807
LeftUpLeg  -4.63171 1.16242 5.99978
LeftLeg  61.2026 -1.04234 -1.4746
LeftFoot  4.55538 1.01554 -7.46802
LeftToes  1.32783e-010 1.73515e-011 1.59258e-011
132
root  48.2588 37.9771 4.9052 30.6533 -83.5557 -36.2277
RightUpLeg  -11.2972 -8.31193 5.96052
RightLeg  24.2507 -1.93462 -0.25356
RightFoot  -8.00841 0.0753354 -4.43829
RightToes  -6.40286e-010 0 -3.6325e-017
Spine  4.52169 0.285481 15.8244
Spine1  8.23753 3.074 -3.8197
HEad  -11.0974 -15.3571 1.50055
LeftShoulder1  -0.453252 4.67811 -32.4598
LeftArm  4.28243 12.9748 -43.2317
LeftForeArm  28.8205 -15.0108 -7.27663
LeftHand  -0.00519529 7.70106 1.68892
RightShoulder  -0.945455 -6.11971 29.558
RightArm  14.1218 8.10688 48.964
RightForeArm  14.0582 10.7695 6.74938
RightHand  -0.273336 5.67052 -3.18595
LeftUpLeg  -8.61175 0.268469 5.76271
LeftLeg  64.3717 -1.09392 -1.84987
LeftFoot  3.45675 0.778911 -6.16024
LeftToes  1.32783e-010 1.73515e-011 1.59258e-011
133
root  47.1946 38.1564 4.87563 27.5374 -84.3274 -33.2547
RightUpLeg  -8.75623 -8.30434 5.01812
RightLeg  23.3212 -1.57633 0.257582
RightFoot  -9.27005 0.0163789 -4.38148
RightToes  -6.40286e-010 0 -3.6325e-017
Spine  4.28189 0.712995 15.8553
Spine1  8.52323 3.68619 -4.56306
HEad  -10.0629 -14.7596 1.40384
LeftShoulder1  -0.501717 4.79992 -32.5585
LeftArm  3.52035 13.9706 -42.4673
LeftForeArm  27.4765 -15.0119 -7.15992
LeftHand  0.0141733 8.29322 2.24918
RightShoulder  -0.82556 -5.84874 28.6041
RightArm  15.8165 10.5365 50.5427
RightForeArm  12.5209 12.9304 6.43751
RightHand  -0.30865 5.60452 -3.5741
LeftUpLeg  -12.375 -0.218585 5.06153
LeftLeg  64.6842 -1.2816 -2.31299
LeftFoot  2.39169 0.56066 -4.77738
LeftToes  1.32783e-010 1.73515e-011 1.59258e-011
134
root  46.1582 38.2923 4.86835 23.8199 -85.0511 -29.6719
RightUpLeg  -6.31518 -8.48328 4.06946
RightLeg  22.5029 -0.896222 0.771711
RightFoot  -10.6582 -0.0452435 -4.44498
RightToes  -6.40286e-010 0 -3.6325e-017
Spine  4.68569 1.05809 15.9771
Spine1  7.80749 4.23781 -5.57639
HEad  -8.69203 -14.9292 0.81723
LeftShoulder1  -0.442589 4.66129 -32.1016
LeftArm  2.18982 15.1575 -42.2259
LeftForeArm  27.8995 -14.8289 -7.03703
LeftHand  0.00967056 7.92936 2.2668
RightShoulder  -0.785938 -5.7851 27.8262
RightArm  17.5018 12.4992 51.7564
RightForeArm  10.8427 15.1331 5.91072
RightHand  -0.278008 5.63204 -3.24421
LeftUpLeg  -15.5964 -0.996684 4.2984
LeftLeg  62.4928 -1.50172 -2.54827
LeftFoot  0.253964 0.426584 -4.21367
LeftToes  1.32783e-010 1.73515e-011 1.59258e-011
135
root  45.1154 38.4283 4.85775 18.251 -85.9967 -24.3568
RightUpLeg  -3.62659 -8.44037 3.11595
RightLeg  21.3715 -0.168752 0.972023
RightFoot  -11.7698 -0.0960001 -4.38629
RightToes  -6.40286e-010 0 -3.6325e-017
Spine  5.05801 1.35351 15.8446
Spine1  7.41884 4.69334 -6.7083
HEad  -8.02763 -13.9897 0.282214
LeftShoulder1  -0.431415 4.63799 -31.901
LeftArm  2.08546 15.8983 -41.7154
LeftForeArm  27.8706 -14.8902 -6.9695
LeftHand  0.00192162 7.6837 2.05194
RightShoulder  -0.753338 -5.71851 27.3787
RightArm  19.3517 14.595 52.7339
RightForeArm  8.54606 17.2347 5.42343
RightHand  -0.358971 6.05135 -3.96567
LeftUpLeg  -17.6782 -1.48794 3.44765
LeftLeg  57.5446 -1.75917 -2.46186
LeftFoot  -1.0361 0.314351 -3.4216
LeftToes  1.32783e-010 1.73515e-011 1.59258e-011
136
root  44.0658 38.5514 4.85497 10.8098 -86.9581 -17.1501
RightUpLeg  -0.831338 -8.61334 2.10261
RightLeg  19.9871 0.866617 1.21487
RightFoot  -12.7855 -0.143532 -4.51404
RightToes  -6.40286e-010 0 -3.6325e-017
Spine  4.8898 1.69449 15.3853
Spine1  7.87208 5.08579 -7.60988
HEad  -8.48332 -13.3496 -0.0262742
LeftShoulder1  -0.40798 4.57445 -31.9681
LeftArm  1.7271 16.0766 -41.1862
LeftForeArm  28.2052 -14.6613 -7.01285
LeftHand  -0.0169003 7.2427 1.42864
RightShoulder  -0.783668 -5.82373 27.1573
RightArm  20.8973 16.9259 53.5064
RightForeArm  6.66384 18.9768 5.05346
RightHand  -0.454279 6.38938 -4.82473
LeftUpLeg  -18.6132 -1.59545 2.78717
LeftLeg  49.9772 -2.10174 -2.2778
LeftFoot  -1.91182 0.279759 -3.26276
LeftToes  1.32783e-010 1.73515e-011 1.59258e-011
